<svg xmlns="http://www.w3.org/2000/svg" viewBox="0 0 320 120" role="img" aria-label="Mission Meat Market">
  <g transform="translate(100,8)" fill="none">
    <path d="M42 38c8-12 22-18 36-14 6 2 10 8 8 14-2 8-12 10-18 6" fill="#111"/>
    <ellipse cx="52" cy="42" rx="4" ry="3" fill="#fff"/>
    <path d="M28 52c12 8 28 8 40 0" stroke="#111" stroke-width="3" stroke-linecap="round"/>
  </g>
  <g transform="translate(60,4)">
    <path d="M88 44c14-20 38-28 62-22 10 2 18 12 14 22-4 14-22 18-34 12" fill="#A53021"/>
    <ellipse cx="108" cy="48" rx="5" ry="4" fill="#111"/>
  </g>
  <g transform="translate(24,0)">
    <path d="M132 52c18-22 48-32 78-26 12 2 22 14 18 26-6 18-28 24-42 16" fill="#D9822B"/>
    <ellipse cx="158" cy="56" rx="5" ry="4" fill="#111"/>
  </g>
  <text x="160" y="102" text-anchor="middle" font-family="system-ui,Segoe UI,sans-serif" font-size="22" font-weight="800" fill="#111">MISSION</text>
  <text x="160" y="118" text-anchor="middle" font-family="system-ui,Segoe UI,sans-serif" font-size="13" font-weight="800" fill="#A53021" stroke="#111" stroke-width="0.6">MEAT MARKET</text>
</svg>
